<?xml version="1.0" encoding="utf-8"?>
<!-- Generator: Adobe Illustrator 20.0.0, SVG Export Plug-In . SVG Version: 6.00 Build 0)  -->
<svg version="1.1" id="Layer_1" xmlns="http://www.w3.org/2000/svg" xmlns:xlink="http://www.w3.org/1999/xlink" x="0px" y="0px"
	 width="25px" height="25px" viewBox="0 0 25 25" enable-background="new 0 0 25 25" xml:space="preserve">
<path fill="#6C65C9" d="M12.5,0C5.5965171,0,0,5.5964661,0,12.5C0,19.4035854,5.5965171,25,12.5,25
	C19.4038906,25,25,19.4035854,25,12.5C25,5.5964661,19.4038906,0,12.5,0L12.5,0z"/>
<path fill="#FFFFFF" d="M13.30161,15.2088718c-0.000001,0.8689556-0.0009966,1.737915,0.0017099,2.606863
	c0.0002413,0.0773449-0.0163279,0.1013107-0.098381,0.1008682c-0.6822462-0.0036755-1.3645306-0.0037575-2.0467758,0.0000801
	c-0.0833225,0.0004692-0.0977001-0.0255375-0.0976105-0.1015797c0.0020475-1.731123,0.0007753-3.4622478,0.0037403-5.1933661
	c0.0001621-0.0948524-0.0176649-0.1277046-0.1199493-0.12498c-0.2883158,0.007679-0.5769978,0.0004826-0.8654699,0.0042629
	c-0.0699654,0.0009155-0.091424-0.0167694-0.0910454-0.0892935c0.0030079-0.5770302,0.0029984-1.1540909,0.0000286-1.7311211
	c-0.0003777-0.0733242,0.02283-0.0903893,0.0923204-0.0895271c0.2884769,0.0035791,0.5770817-0.00177,0.8655071,0.0034533
	c0.0889282,0.0016117,0.1203651-0.016592,0.1191053-0.1144285c-0.0054226-0.4208021-0.0158691-0.8424044,0.0032339-1.2624559
	c0.0286617-0.6302195,0.2245474-1.1973915,0.7139311-1.6283269c0.340764-0.3000665,0.7517643-0.4471769,1.1959963-0.4800439
	c0.6500063-0.0480919,1.3020487-0.0151296,1.9532566-0.0119944c0.0507994,0.0002446,0.0616817,0.0195951,0.0615864,0.0658298
	c-0.0011883,0.5702496-0.0018663,1.1405082,0.0006742,1.7107491c0.0003014,0.0674906-0.0331478,0.0669041-0.0813599,0.0667629
	c-0.3360386-0.0009909-0.6720829-0.00105-1.0081215-0.0000391c-0.0642433,0.0001936-0.128767,0.0036469-0.1926441,0.0104475
	c-0.2057199,0.0219021-0.3502874,0.1524687-0.3895531,0.3559399c-0.0134039,0.0694628-0.018877,0.1414003-0.0193119,0.2122612
	c-0.0019789,0.3224516,0.0020523,0.6449671-0.0028791,0.9673557c-0.0012665,0.0827732,0.0180292,0.1087608,0.1045523,0.1080389
	c0.5023308-0.0041924,1.004734,0.0002737,1.5070591-0.0042381c0.087923-0.0007896,0.1083088,0.0242825,0.0992851,0.1075726
	c-0.0627937,0.5795679-0.12358,1.1593695-0.1805725,1.7395315c-0.0067759,0.0689745-0.0429211,0.0621433-0.0874386,0.0621138
	c-0.4378729-0.0002871-0.8757801,0.0028458-1.3135881-0.0024748c-0.0985193-0.0011969-0.1308851,0.0172853-0.1302261,0.1252546
	C13.3039341,13.4845238,13.30161,14.3467045,13.30161,15.2088718z"/>
</svg>
