<?xml version="1.0" encoding="utf-8"?>
<!-- Generator: Adobe Illustrator 20.0.0, SVG Export Plug-In . SVG Version: 6.00 Build 0)  -->
<svg version="1.1" id="Layer_1" xmlns="http://www.w3.org/2000/svg" xmlns:xlink="http://www.w3.org/1999/xlink" x="0px" y="0px"
	 width="25px" height="25px" viewBox="0 0 25 25" enable-background="new 0 0 25 25" xml:space="preserve">
<g>
	<path fill="#6C65C9" d="M12.5,0C5.5965171,0,0,5.5964661,0,12.5C0,19.4035854,5.5965171,25,12.5,25
		C19.4038906,25,25,19.4035854,25,12.5C25,5.5964661,19.4038906,0,12.5,0L12.5,0z"/>
	<g>
		<path fill="#FFFFFF" d="M10.3075094,16.8960075c-0.3544827,0-0.2960119-0.1352158-0.4166088-0.471426L8.8457251,12.985734
			L16.88554,8.2166624"/>
		<path fill="#FFFFFF" d="M10.3075094,16.8960075c0.2740841,0,0.3946819-0.1242523,0.5481691-0.2740841l1.4617844-1.421586
			l-1.823576-1.0999928"/>
		<path fill="#FFFFFF" d="M10.4938869,14.1003447l4.4182434,3.2634325c0.5043154,0.2777386,0.8697615,0.1352158,0.9940138-0.4677696
			l1.7979956-8.4746952c0.1827221-0.7382016-0.281395-1.0744114-0.7637825-0.8551435L6.3789649,11.6372385
			c-0.7199287,0.288702-0.7162747,0.6906929-0.1315613,0.8697605l2.7116103,0.8441811l6.2747097-3.9577808
			c0.296011-0.1790686,0.5664415-0.0840521,0.3435192,0.1132889"/>
	</g>
</g>
</svg>
