<?xml version="1.0" encoding="utf-8"?>
<!-- Generator: Adobe Illustrator 20.0.0, SVG Export Plug-In . SVG Version: 6.00 Build 0)  -->
<svg version="1.1" id="Layer_1" xmlns="http://www.w3.org/2000/svg" xmlns:xlink="http://www.w3.org/1999/xlink" x="0px" y="0px"
	 width="25px" height="25px" viewBox="0 0 25 25" enable-background="new 0 0 25 25" xml:space="preserve">
<g>
	<path fill="#6C65C9" d="M6.3683743,17.0646992c1.609221-0.013237,3.0359416-0.4331169,3.5638137-1.0591984
		c-0.1617327-0.0289736-0.3169909-0.0473928-0.4673357-0.0852985c-0.7759714-0.1956482-1.3389711-0.6590681-1.696013-1.3724585
		c-0.1404018-0.2805328-0.1360083-0.2781954,0.1679621-0.2736397c0.2348952,0.00352,0.4736047,0.0310125,0.7127604-0.0554323
		c-0.0696592-0.1038084-0.1761837-0.0980291-0.2606773-0.1329737C7.448349,13.6967115,6.90905,12.9970341,6.7674017,11.9919128
		c-0.0382686-0.2715464-0.019002-0.2793751,0.2271152-0.1806402c0.2502418,0.1003904,0.5031443,0.1946278,0.8321676,0.1661167
		c-0.2022696-0.1802702-0.3774176-0.3258257-0.5126667-0.5094175C6.7239957,10.6670513,6.616477,9.8093348,6.9960175,8.887476
		c0.0814013-0.1977139,0.142488-0.221817,0.2960219-0.0490141c1.1804671,1.3286123,2.6561437,2.1175108,4.4133668,2.3780479
		c0.1914663,0.028388,0.4280396,0.1098385,0.5683689,0.0315933c0.160326-0.0893965,0.0159912-0.3349934,0.0222406-0.5124369
		c0.0373344-1.0601015,0.5094862-1.8628683,1.4774122-2.2998104c0.9663029-0.4362116,1.9039278-0.3172741,2.7318535,0.3693485
		c0.1659317,0.1376123,0.2987232,0.169879,0.4986801,0.115571c0.4321022-0.1173544,0.8409195-0.2903824,1.2823048-0.5162268
		c-0.1603374,0.5935307-0.529974,0.9701195-1.0058632,1.3433123c0.4955273-0.0473471,0.890976-0.1913691,1.3514996-0.3475475
		c-0.287159,0.4567156-0.6068459,0.7854109-0.9678574,1.0679636c-0.1849842,0.1447859-0.2588425,0.2909212-0.2590561,0.5297861
		c-0.002903,3.2433863-2.1730947,6.1095858-5.289958,6.920743c-1.9355192,0.5037174-3.8088913,0.2825336-5.5696387-0.7066002
		C6.4788394,17.1748199,6.3955421,17.1534977,6.3683743,17.0646992z"/>
	<path fill="#6C65C9" d="M12.5,1.6666666c5.9737148,0,10.833334,4.8598228,10.833334,10.833333S18.4737148,23.333334,12.5,23.333334
		S1.6666666,18.4735107,1.6666666,12.5S6.5262856,1.6666666,12.5,1.6666666 M12.5,0C5.5965171,0,0,5.5964661,0,12.5
		C0,19.4035854,5.5965171,25,12.5,25C19.4038906,25,25,19.4035854,25,12.5C25,5.5964661,19.4038906,0,12.5,0L12.5,0z"/>
</g>
</svg>
