<svg width="74" height="24" viewBox="0 0 74 24" xmlns="http://www.w3.org/2000/svg"><title>asl19-logo</title><g fill="#666" fill-rule="evenodd"><path d="M61.773 23.833c-6.06 0-11.19-4.48-12.003-10.484-.813-6.006 2.937-11.688 8.78-13.3.723-.2 1.47.225 1.67.948.198.723-.227 1.47-.95 1.67-4.532 1.25-7.442 5.658-6.81 10.315.63 4.658 4.608 8.133 9.31 8.133 4.702 0 8.68-3.475 9.31-8.133.632-4.657-2.278-9.065-6.81-10.315-.468-.13-.83-.5-.953-.97-.122-.468.016-.967.362-1.308.345-.34.846-.47 1.314-.34 5.842 1.612 9.593 7.293 8.78 13.298-.813 6.004-5.94 10.484-12 10.485z"/><path d="M57.38 14.284l2.15-2.148 1.312-1.316c.25-.242.582-.376.93-.376.346 0 .68.134.928.376l1.224 1.223 2.237 2.237c.25.25.592.392.946.392.355 0 .695-.14.946-.392.25-.25.392-.59.392-.945s-.14-.695-.392-.945l-2.235-2.233-3.1-3.1c-.25-.25-.59-.39-.945-.39s-.695.14-.945.39l-3.188 3.188-2.15 2.148c-.25.25-.392.59-.392.946 0 .353.14.693.392.944.25.25.59.392.946.392.354 0 .695-.14.945-.392zM2.796 5.227L1 6.227l.055.096c.644 1.097.97 2.66.97 4.648v5.64h2.078v-5.987c0-2.08-.42-3.864-1.253-5.312l-.054-.083zM12.36 5.96c-.634-.65-1.465-.965-2.535-.965-.93-.036-1.83.334-2.468 1.015-.614.677-.94 1.567-.912 2.48-.028.91.295 1.797.9 2.477.617.69 1.51 1.068 2.433 1.033.332.003.664-.042.984-.134l.46-.136v4.99h2.086V8.49c0-1.034-.32-1.886-.95-2.53zM11.213 8.5c0 .738-.598 1.336-1.335 1.336-.74 0-1.337-.597-1.338-1.334 0-.738.596-1.336 1.334-1.337.738 0 1.337.597 1.338 1.335zM42.903 5.217h2.11V16.61h-2.11zM36.866 9.478c-1.544 0-3.95 2-5.798 3.797-.062-.61-.25-1.198-.553-1.73l-.055-.098-1.51.92.044.09c.33.653.393 1.16.197 1.548-.06.12-.144.223-.25.305l-.155.074c-.19.09-.396.134-.606.134-.87 0-1.29-.716-1.29-2.186V5.396h-2.135v9.315c0 .08 0 .16-.01.24v.125c-.16 1.17-1 2.13-2.136 2.447-1.137.316-2.353-.075-3.092-.995-.74-.92-.86-2.19-.305-3.233L17.38 12.28c-.414.744-.634 1.58-.64 2.43v.078c.058 2.754 2.3 4.96 5.056 4.973 2.366-.012 4.41-1.656 4.93-3.963.14.356.49.816 1.376.816h.84c1.425 0 1.46-1.204 1.46-1.227 0 .023.05 1.227 1.496 1.227h5.622c1.793 0 3.246-1.453 3.246-3.246 0-1.033-.412-2.023-1.143-2.753-.732-.73-1.723-1.138-2.757-1.136zm.44 5.05h-4.233s2.345-2.95 3.972-2.95c.884.002 1.6.72 1.602 1.602.002.357-.14.7-.39.95-.252.254-.593.396-.95.396v.002z"/></g></svg>