<svg width="110" height="24" viewBox="0 0 110 24" xmlns="http://www.w3.org/2000/svg"><title>logo</title><g fill="none" fill-rule="evenodd"><path d="M109.004.25c.617.33.997.938.996 1.596l-.017 20.314c0 1.416-1.66 2.3-2.987 1.592-.617-.33-.997-.937-.996-1.595l.017-20.313c0-1.417 1.66-2.3 2.987-1.593z" fill="#FFF"/><path d="M109.075.247c-.574-.33-1.28-.33-1.854.002L90.5 9.93l3.697 2.13 14.88-8.615c1.232-.712 1.23-2.487-.002-3.198z" fill="#FFF"/><path d="M96.698 9.188c-.757-.347-1.6-.54-2.486-.54-3.295 0-5.967 2.67-5.967 5.967 0 3.295 2.672 5.967 5.967 5.967 3.296 0 5.968-2.672 5.968-5.967 0-2.41-1.427-4.484-3.482-5.427zm-2.486 8.006c-1.424 0-2.58-1.155-2.58-2.58 0-1.424 1.156-2.58 2.58-2.58 1.425 0 2.58 1.156 2.58 2.58 0 1.425-1.155 2.58-2.58 2.58zM78.996.25C78.38.577 78 1.186 78 1.844l.017 20.313c0 1.416 1.66 2.3 2.987 1.593.617-.328.997-.937.996-1.595l-.017-20.313c0-1.416-1.66-2.3-2.987-1.593z" fill="#6C65C9"/><path d="M78.95.247c.587-.33 1.313-.33 1.9.002L98 9.93l-3.792 2.13-15.262-8.615c-1.263-.712-1.26-2.487.003-3.198z" fill="#6C65C9"/><path d="M71.145 8.997c-.058-.133-.148-.25-.25-.346-.103-.097-.228-.175-.364-.234-.135-.06-.28-.09-.432-.09-.453-.005-.902 0-1.343-.006-.442-.005-.884-.006-1.326-.006h-.12c-.476 0-.92.086-1.332.28-.453.214-.848.488-1.183.834-.336.346-.587.732-.78 1.164-.194.432-.277.858-.277 1.284v1.89H61c-.037-.745-.16-1.484-.372-2.064-.212-.58-.48-1.056-.807-1.452-.326-.396-.697-.707-1.115-.944-.417-.236-.852-.418-1.306-.552-.454-.133-.91-.223-1.37-.273-.46-.05-.898-.083-1.315-.1l-.29-.018c-.103-.006-.207-.01-.313-.017l-.308-.018-.268-.018-.19 2.19c.21.018.387.03.526.032.14.003.272.004.4.004.277.006.576.015.897.027.32.012.638.05.955.11.318.063.625.16.92.29.297.13.564.315.803.558.24.243.44.528.6.9.16.374.26.85.303 1.345H50.57V5.258h-2.195v8.507h-3.039V8.562H43.14v5.203h-1.605V8.562h-2.28v5.203h-1.603V8.562h-2.28v6.712c0 .248-.047.463-.14.643-.094.18-.22.33-.377.448s-.337.207-.54.266c-.202.06-.412.09-.63.09-.218 0-.428-.03-.63-.09-.203-.058-.383-.147-.54-.265-.157-.118-.284-.268-.378-.448-.093-.18-.142-.395-.142-.643v-3.326h-2.28v3.326c0 .597.13 1.122.353 1.574.224.453.528.833.897 1.14.37.308.793.54 1.265.697.47.157.957.235 1.453.235.44 0 .878-.06 1.307-.182.43-.12.82-.303 1.175-.545.353-.243.653-.554.898-.917.245-.364.41-.786.494-1.28h32.538c.17 0 .323-.025.462-.087.14-.063.257-.143.354-.25.096-.106.19-.23.242-.375.05-.145.097-.295.097-.455V9.418c0-.148-.048-.288-.105-.42zm-2.173 4.768h-3.04v-1.898c0-.178.054-.347.132-.51.08-.163.192-.31.325-.44.13-.13.288-.245.46-.325.172-.08.35-.13.525-.13h.054c.017 0 .046.012.086.014.04.004.095.01.167.01.103 0 .268.005.486.007l.802.016v3.255zm-12.026 3.78c-.11-.107-.236-.19-.38-.248-.146-.06-.303-.09-.472-.09-.164 0-.318.03-.463.09-.144.06-.27.14-.38.248-.11.106-.193.23-.254.373-.06.142-.09.295-.09.46 0 .16.03.31.09.453.06.143.145.268.254.374.11.106.236.19.38.253.146.062.3.093.464.093.17 0 .326-.03.47-.093.146-.062.273-.147.382-.253.11-.106.195-.23.258-.373.064-.14.096-.29.096-.45 0-.167-.032-.32-.096-.462-.063-.142-.15-.267-.258-.373zM27.943 8.562h-2.28v5.203h-4.051V5.258h-2.195v9.554c0 .024-.014.042-.014.054 0 .006.014.008.014.008v.036c0 .154.013.297.073.43s.134.25.236.35c.103.1.218.172.354.228.136.056.28.077.436.077h6.303c.156 0 .302-.02.438-.077.136-.056.256-.13.36-.23.1-.102.18-.217.24-.35.06-.133.085-.274.085-.428V8.562zm-2.64-1.566c.11.107.237.19.382.25.145.058.3.087.463.087.17 0 .326-.03.47-.088.146-.06.273-.142.382-.25.11-.105.195-.23.258-.37.064-.143.096-.294.096-.454 0-.164-.032-.318-.096-.46-.063-.142-.15-.266-.258-.373-.11-.106-.236-.19-.38-.248-.146-.06-.303-.09-.472-.09-.164 0-.318.03-.463.09-.145.058-.272.14-.38.247-.11.107-.194.23-.255.373-.06.142-.09.296-.09.46 0 .16.03.312.09.454.06.142.145.266.254.372zm-7.79 1.655c-.102-.097-.22-.175-.357-.234-.136-.06-.28-.09-.43-.09-.454-.005-.902 0-1.343-.006-.44-.005-.883-.006-1.324-.006h-.12c-.476 0-.92.086-1.332.28-.453.214-.848.488-1.183.834-.336.346-.62.732-.815 1.164-.193.432-.31.858-.31 1.284v1.89H7.51l-.028-4.193c0-.177-.038-.333-.113-.49-.075-.156-.176-.29-.303-.41-.127-.122-.273-.203-.44-.27-.166-.07-.34-.09-.52-.09h-2.35c-.514 0-.997.086-1.45.278-.454.193-.85.45-1.184.78-.336.332-.62.716-.813 1.16-.194.444-.31.914-.31 1.417v2.732c0 .265.104.5.273.7.17.2.39.328.645.382l-.013-.01c.205.06.454.115.74.165.288.05.587.095.896.133.31.04.597.07.9.093.302.024.612.036.78.036v-2.202c-.083 0-.234-.005-.412-.017-.18-.01-.354-.026-.545-.044-.19-.017-.37-.038-.55-.062-.177-.023-.318-.044-.427-.062l-.008-1.845c0-.195.04-.382.118-.56.08-.177.186-.332.322-.465.137-.133.294-.24.472-.32.178-.08.368-.12.567-.12.254 0 .503.002.748.005s.495.005.748.005l.02 4.347c0 .16.024.31.076.45.05.143.124.268.22.374.097.107.215.183.355.245.14.06.296.085.47.085h10.33c.17 0 .324-.024.463-.086.14-.063.257-.143.353-.25.098-.106.158-.23.21-.375.05-.145.063-.295.063-.455V9.418c0-.148-.015-.288-.072-.42-.057-.134-.123-.25-.226-.347zm-1.895 5.115h-3.04v-1.898c0-.178.046-.347.124-.51.08-.163.187-.31.32-.44s.288-.245.46-.325c.172-.08.347-.13.523-.13h.054c.017 0 .046.012.085.014.04.004.095.01.168.01.103 0 .276.005.494.007l.81.016v3.255z" fill="#FFF"/></g></svg>