<svg width="88" height="24" viewBox="0 0 88 24" xmlns="http://www.w3.org/2000/svg"><title>mysociety-logo-hover</title><g fill="none" fill-rule="evenodd"><g fill="#000"><path d="M.11 9.882c0-1.1-.02-2.024-.078-2.85h2.084l.098 1.415h.06c.47-.747 1.336-1.63 2.948-1.63 1.26 0 2.24.707 2.654 1.768h.04c.333-.53.727-.925 1.178-1.2.532-.373 1.14-.57 1.927-.57 1.594 0 3.205 1.082 3.205 4.15v5.64h-2.36v-5.288c0-1.592-.55-2.536-1.71-2.536-.825 0-1.434.59-1.69 1.28-.06.235-.117.53-.117.805v5.74h-2.36V11.06c0-1.335-.53-2.28-1.65-2.28-.905 0-1.514.71-1.73 1.377-.1.236-.138.51-.138.787v5.66H.11V9.883zM17.98 7.032l1.73 5.13c.196.59.393 1.318.53 1.868h.06c.156-.55.333-1.258.51-1.887l1.494-5.11H24.9l-2.4 6.526c-1.316 3.576-2.2 5.168-3.34 6.15-.945.847-1.928 1.16-2.538 1.24l-.55-2.045c.413-.098.925-.314 1.416-.668.452-.295.983-.866 1.317-1.514.098-.178.157-.314.157-.433 0-.098-.02-.235-.138-.47l-3.5-8.79h2.655v.002z"/></g><g fill="#000"><path d="M26.333 13.97c.786.453 1.966.846 3.204.846 1.553 0 2.418-.727 2.418-1.808 0-1.003-.668-1.593-2.36-2.202-2.18-.786-3.577-1.946-3.577-3.853 0-2.162 1.81-3.814 4.68-3.814 1.434 0 2.496.314 3.184.668l-.59 1.946c-.472-.256-1.396-.63-2.634-.63-1.534 0-2.202.826-2.202 1.593 0 1.022.767 1.494 2.536 2.182 2.3.865 3.42 2.024 3.42 3.93 0 2.124-1.612 3.992-5.032 3.992-1.396 0-2.85-.413-3.578-.845l.53-2.006zM54.736 16.31c-.51.235-1.513.51-2.713.51-2.987 0-4.934-1.926-4.934-4.894 0-2.87 1.965-5.11 5.327-5.11.885 0 1.79.196 2.34.45l-.433 1.81c-.392-.177-.963-.374-1.828-.374-1.847 0-2.95 1.357-2.93 3.106 0 1.966 1.28 3.086 2.93 3.086.845 0 1.436-.177 1.907-.373l.333 1.79zM56.526 16.605V7.032h2.437v9.573M59.1 4.358c0 .728-.53 1.298-1.375 1.298-.807 0-1.338-.57-1.338-1.298 0-.747.552-1.317 1.357-1.317.825 0 1.337.57 1.356 1.318zM63.267 12.497c.06 1.73 1.416 2.476 2.95 2.476 1.12 0 1.925-.157 2.654-.433l.354 1.672c-.827.333-1.966.61-3.342.61-3.106 0-4.934-1.928-4.934-4.856 0-2.655 1.612-5.15 4.678-5.15 3.125 0 4.128 2.555 4.128 4.66 0 .45-.038.805-.078 1.02h-6.41zm4.208-1.69c.02-.886-.374-2.34-1.986-2.34-1.496 0-2.125 1.356-2.223 2.34h4.208zM74.47 4.574v2.458h2.302v1.81h-2.3v4.225c0 1.16.314 1.77 1.238 1.77.452 0 .667-.04.944-.12l.04 1.85c-.355.136-.984.255-1.75.255-.885 0-1.632-.315-2.084-.806-.51-.55-.747-1.416-.747-2.674v-4.5h-1.376V7.03h1.376v-1.77l2.358-.688zM80.25 7.032l1.732 5.13c.196.59.39 1.318.53 1.868h.058c.158-.55.335-1.258.51-1.887l1.496-5.11h2.594l-2.398 6.526c-1.317 3.576-2.2 5.17-3.342 6.152-.944.846-1.927 1.16-2.535 1.24l-.552-2.046c.413-.098.925-.315 1.416-.67.45-.293.982-.864 1.316-1.512.1-.178.158-.315.158-.433 0-.097-.02-.235-.138-.47l-3.498-8.788h2.653z"/></g><g transform="translate(35.16 6.422)"><path d="M5.383 0c.68 0 1.232.552 1.232 1.232 0 .68-.552 1.232-1.232 1.232-.68 0-1.23-.552-1.23-1.232 0-.68.55-1.23 1.23-1.23z" fill="#ED1C24"/><path d="M5.383 8.23c.68 0 1.232.55 1.232 1.23 0 .68-.552 1.233-1.232 1.233-.68 0-1.23-.552-1.23-1.232 0-.68.55-1.23 1.23-1.23z" fill="#29ABE2"/><path d="M8.326 1.24c.68 0 1.232.55 1.232 1.23 0 .68-.553 1.232-1.232 1.232-.68 0-1.232-.55-1.232-1.232 0-.68.55-1.23 1.232-1.23z" fill="#F7931E"/><path d="M3.3 9.104c-.486.473-1.266.465-1.74-.02-.477-.488-.467-1.268.02-1.742.486-.476 1.265-.468 1.74.02.476.485.467 1.264-.02 1.742z" fill="#662D91"/><path d="M9.497 4.08c.68 0 1.232.55 1.232 1.232 0 .68-.554 1.23-1.233 1.23-.68 0-1.23-.55-1.23-1.23 0-.68.55-1.232 1.23-1.232z" fill="#FCEE21"/><ellipse fill="#93278F" cx="1.269" cy="5.381" rx="1.232" ry="1.232"/><path d="M7.42 9.127c-.48-.482-.48-1.26 0-1.743.482-.48 1.262-.48 1.743 0 .48.482.48 1.26 0 1.743-.48.48-1.26.48-1.742 0z" fill="#8CC63F"/></g></g></svg>